# xmcd
#
# Track frame offsets: 
#        150
#        11068
#        27139
#        42013
#        61793
#        77219
#        91943
#        110735
#        160237
#        174206
#        186457
#        201883
#        217212
#        240650
#        253973
#        274874
#        290527
#        312281
#        321667
#        328756
#
# Disc length: 4519 seconds
#
# Revision: 0
# Processed by: cddbd v1.5.2PL0 Copyright (c) Steve Scherf et al.
# Submitted via: ExactAudioCopy v0.99pb5
#
DISCID=2c11a514
DTITLE=Frank Sinatra  - Entertain Me Box - Come Fly With Me - Disc 3 
DYEAR=1900
DGENRE=
TTITLE0=I've Got The Wold On A String
TTITLE1=In The Still Of The Night
TTITLE2=They Can't Take that Away From Me
TTITLE3=Come Rain Or Come Shine
TTITLE4=Where Or When
TTITLE5=My Heart Stood Still
TTITLE6=Mack The Knife
TTITLE7=Soliloque
TTITLE8=The Lady Is A Tramp
TTITLE9=Come Fly With Me
TTITLE10=The One I Love Belongs To Somebody Else
TTITLE11=In The Still Of The Night
TTITLE12=The Moon Was Yellow And Night Was Young
TTITLE13=The Second Time Around
TTITLE14=April In Paris
TTITLE15=Here's That Rainy Day
TTITLE16=On The Road To Mandalay
TTITLE17=Young At Heart
TTITLE18=Witchcraft
TTITLE19=Chicago
EXTD=
EXTT0=
EXTT1=
EXTT2=
EXTT3=
EXTT4=
EXTT5=
EXTT6=
EXTT7=
EXTT8=
EXTT9=
EXTT10=
EXTT11=
EXTT12=
EXTT13=
EXTT14=
EXTT15=
EXTT16=
EXTT17=
EXTT18=
EXTT19=
PLAYORDER=
